%TF.GenerationSoftware,KiCad,Pcbnew,9.0.1*%
%TF.CreationDate,2025-06-17T23:00:35+08:00*%
%TF.ProjectId,EpochCounter,45706f63-6843-46f7-956e-7465722e6b69,rev?*%
%TF.SameCoordinates,Original*%
%TF.FileFunction,Legend,Bot*%
%TF.FilePolarity,Positive*%
%FSLAX46Y46*%
G04 Gerber Fmt 4.6, Leading zero omitted, Abs format (unit mm)*
G04 Created by KiCad (PCBNEW 9.0.1) date 2025-06-17 23:00:35*
%MOMM*%
%LPD*%
G01*
G04 APERTURE LIST*
%ADD10C,0.150000*%
%ADD11C,0.120000*%
G04 APERTURE END LIST*
D10*
X125017819Y-118030905D02*
X124017819Y-118030905D01*
X124017819Y-118030905D02*
X124017819Y-118269000D01*
X124017819Y-118269000D02*
X124065438Y-118411857D01*
X124065438Y-118411857D02*
X124160676Y-118507095D01*
X124160676Y-118507095D02*
X124255914Y-118554714D01*
X124255914Y-118554714D02*
X124446390Y-118602333D01*
X124446390Y-118602333D02*
X124589247Y-118602333D01*
X124589247Y-118602333D02*
X124779723Y-118554714D01*
X124779723Y-118554714D02*
X124874961Y-118507095D01*
X124874961Y-118507095D02*
X124970200Y-118411857D01*
X124970200Y-118411857D02*
X125017819Y-118269000D01*
X125017819Y-118269000D02*
X125017819Y-118030905D01*
X124017819Y-119221381D02*
X124017819Y-119316619D01*
X124017819Y-119316619D02*
X124065438Y-119411857D01*
X124065438Y-119411857D02*
X124113057Y-119459476D01*
X124113057Y-119459476D02*
X124208295Y-119507095D01*
X124208295Y-119507095D02*
X124398771Y-119554714D01*
X124398771Y-119554714D02*
X124636866Y-119554714D01*
X124636866Y-119554714D02*
X124827342Y-119507095D01*
X124827342Y-119507095D02*
X124922580Y-119459476D01*
X124922580Y-119459476D02*
X124970200Y-119411857D01*
X124970200Y-119411857D02*
X125017819Y-119316619D01*
X125017819Y-119316619D02*
X125017819Y-119221381D01*
X125017819Y-119221381D02*
X124970200Y-119126143D01*
X124970200Y-119126143D02*
X124922580Y-119078524D01*
X124922580Y-119078524D02*
X124827342Y-119030905D01*
X124827342Y-119030905D02*
X124636866Y-118983286D01*
X124636866Y-118983286D02*
X124398771Y-118983286D01*
X124398771Y-118983286D02*
X124208295Y-119030905D01*
X124208295Y-119030905D02*
X124113057Y-119078524D01*
X124113057Y-119078524D02*
X124065438Y-119126143D01*
X124065438Y-119126143D02*
X124017819Y-119221381D01*
X134746904Y-82766819D02*
X134746904Y-83576342D01*
X134746904Y-83576342D02*
X134699285Y-83671580D01*
X134699285Y-83671580D02*
X134651666Y-83719200D01*
X134651666Y-83719200D02*
X134556428Y-83766819D01*
X134556428Y-83766819D02*
X134365952Y-83766819D01*
X134365952Y-83766819D02*
X134270714Y-83719200D01*
X134270714Y-83719200D02*
X134223095Y-83671580D01*
X134223095Y-83671580D02*
X134175476Y-83576342D01*
X134175476Y-83576342D02*
X134175476Y-82766819D01*
X133175476Y-83766819D02*
X133746904Y-83766819D01*
X133461190Y-83766819D02*
X133461190Y-82766819D01*
X133461190Y-82766819D02*
X133556428Y-82909676D01*
X133556428Y-82909676D02*
X133651666Y-83004914D01*
X133651666Y-83004914D02*
X133746904Y-83052533D01*
D11*
%TO.C,U1*%
X132591000Y-82102000D02*
X132591000Y-101342000D01*
X132591000Y-82102000D02*
X183131000Y-82102000D01*
X150511000Y-81722000D02*
X152511000Y-81722000D01*
X183131000Y-82102000D02*
X183131000Y-101342000D01*
X183131000Y-101342000D02*
X132591000Y-101342000D01*
%TD*%
M02*
