M48
; DRILL file {KiCad 9.0.1} date 2025-06-17T23:01:27+0800
; FORMAT={-:-/ absolute / metric / decimal}
; #@! TF.CreationDate,2025-06-17T23:01:27+08:00
; #@! TF.GenerationSoftware,Kicad,Pcbnew,9.0.1
; #@! TF.FileFunction,Plated,1,2,PTH
FMAT,2
METRIC
; #@! TA.AperFunction,Plated,PTH,ViaDrill
T1C0.300
; #@! TA.AperFunction,Plated,PTH,ComponentDrill
T2C0.800
; #@! TA.AperFunction,Plated,PTH,ComponentDrill
T3C1.000
; #@! TA.AperFunction,Plated,PTH,ComponentDrill
T4C1.016
; #@! TA.AperFunction,Plated,PTH,ComponentDrill
T5C1.100
%
G90
G05
T1
X114.3Y-104.775
X123.19Y-104.775
X129.54Y-86.995
X129.54Y-89.535
X129.54Y-92.075
X129.54Y-97.155
X129.54Y-99.695
X129.54Y-102.235
X129.54Y-104.775
X129.54Y-107.315
X129.54Y-109.982
X131.675Y-107.085
X133.072Y-112.038
X133.453Y-100.735
X133.834Y-98.576
X134.596Y-114.451
X135.255Y-113.157
X135.89Y-99.695
X142.343Y-86.199
X142.851Y-86.834
X143.359Y-87.469
X143.925Y-88.035
X148.463Y-89.789
X148.59Y-99.695
X151.765Y-89.789
X152.781Y-81.28
X152.781Y-100.33
X153.67Y-96.52
X155.067Y-89.789
X155.194Y-81.28
X155.321Y-100.33
X157.48Y-81.28
X157.861Y-97.79
X157.861Y-100.33
X160.401Y-81.28
X160.401Y-97.79
X160.401Y-100.33
X162.941Y-100.33
T2
X145.772Y-117.841
X145.772Y-120.341
X168.378Y-117.968
X168.378Y-120.468
T3
X151.511Y-84.102
X151.511Y-99.342
X154.051Y-84.102
X154.051Y-99.342
X156.44Y-116.782
X156.44Y-121.782
X156.591Y-84.102
X156.591Y-99.342
X159.131Y-84.102
X159.131Y-99.342
X161.671Y-84.102
X161.671Y-99.342
X164.211Y-84.102
X164.211Y-99.342
X179.003Y-116.909
X179.003Y-121.909
T4
X111.228Y-85.749
X111.228Y-88.289
X111.228Y-90.829
X111.228Y-93.369
X111.228Y-95.909
X111.228Y-98.449
X111.228Y-100.989
X111.228Y-103.529
X111.228Y-106.069
X111.228Y-108.609
X111.228Y-111.149
X111.228Y-113.689
X111.228Y-116.229
X111.228Y-118.769
X111.228Y-121.309
X126.468Y-85.749
X126.468Y-88.289
X126.468Y-90.829
X126.468Y-93.369
X126.468Y-95.909
X126.468Y-98.449
X126.468Y-100.989
X126.468Y-103.529
X126.468Y-106.069
X126.468Y-108.609
X126.468Y-111.149
X126.468Y-113.689
X126.468Y-116.229
X126.468Y-118.769
X126.468Y-121.309
T5
X162.861Y-106.45
X162.861Y-108.99
X162.861Y-111.53
T3
G00X182.426Y-109.265
M15
G01X182.426Y-106.665
M16
G05
G00X184.226Y-103.165
M15
G01X186.426Y-103.165
M16
G05
G00X188.726Y-109.065
M15
G01X188.726Y-106.865
M16
G05
M30
