%TF.GenerationSoftware,KiCad,Pcbnew,9.0.1*%
%TF.CreationDate,2025-06-17T23:00:35+08:00*%
%TF.ProjectId,EpochCounter,45706f63-6843-46f7-956e-7465722e6b69,rev?*%
%TF.SameCoordinates,Original*%
%TF.FileFunction,Soldermask,Bot*%
%TF.FilePolarity,Negative*%
%FSLAX46Y46*%
G04 Gerber Fmt 4.6, Leading zero omitted, Abs format (unit mm)*
G04 Created by KiCad (PCBNEW 9.0.1) date 2025-06-17 23:00:35*
%MOMM*%
%LPD*%
G01*
G04 APERTURE LIST*
%ADD10C,1.100000*%
%ADD11C,0.700000*%
%ADD12R,2.000000X2.000000*%
%ADD13C,2.000000*%
%ADD14R,1.600000X1.600000*%
%ADD15C,1.600000*%
%ADD16R,2.000000X1.905000*%
%ADD17O,2.000000X1.905000*%
%ADD18C,1.800000*%
%ADD19C,1.727200*%
%ADD20R,1.727200X1.727200*%
%ADD21O,2.404000X4.604000*%
%ADD22O,2.204000X4.204000*%
%ADD23O,4.204000X2.204000*%
%ADD24R,1.500000X1.500000*%
%ADD25C,1.500000*%
G04 APERTURE END LIST*
D10*
%TO.C,BT1*%
X173863000Y-95554800D03*
D11*
X173863000Y-87554800D03*
%TD*%
D12*
%TO.C,C4*%
X156440000Y-116782323D03*
D13*
X156440000Y-121782323D03*
%TD*%
D14*
%TO.C,C1*%
X168378000Y-117967621D03*
D15*
X168378000Y-120467621D03*
%TD*%
D12*
%TO.C,C3*%
X179003000Y-116909323D03*
D13*
X179003000Y-121909323D03*
%TD*%
D16*
%TO.C,U3*%
X162861000Y-106450000D03*
D17*
X162861000Y-108990000D03*
X162861000Y-111530000D03*
%TD*%
D18*
%TO.C,A1*%
X126468000Y-123849000D03*
X126468000Y-83209000D03*
X111228000Y-123849000D03*
X111228000Y-83209000D03*
D19*
X111228000Y-88289000D03*
X111228000Y-113689000D03*
X111228000Y-93369000D03*
X111228000Y-95909000D03*
X111228000Y-98449000D03*
X111228000Y-100989000D03*
X111228000Y-103529000D03*
X111228000Y-106069000D03*
X111228000Y-108609000D03*
X111228000Y-111149000D03*
X111228000Y-90829000D03*
X126468000Y-118769000D03*
X126468000Y-121309000D03*
X126468000Y-111149000D03*
X126468000Y-108609000D03*
X126468000Y-106069000D03*
X126468000Y-103529000D03*
X126468000Y-100989000D03*
X126468000Y-98449000D03*
X126468000Y-95909000D03*
X126468000Y-93369000D03*
X126468000Y-90829000D03*
X126468000Y-88289000D03*
X126468000Y-85749000D03*
X111228000Y-85749000D03*
D20*
X126468000Y-113689000D03*
X111228000Y-118769000D03*
D19*
X126468000Y-116229000D03*
X111228000Y-116229000D03*
X111228000Y-121309000D03*
%TD*%
D14*
%TO.C,C2*%
X145772000Y-117840621D03*
D15*
X145772000Y-120340621D03*
%TD*%
D21*
%TO.C,J1*%
X182426000Y-107965000D03*
D22*
X188726000Y-107965000D03*
D23*
X185326000Y-103165000D03*
%TD*%
D24*
%TO.C,U1*%
X151511000Y-84102000D03*
D25*
X154051000Y-84102000D03*
X156591000Y-84102000D03*
X159131000Y-84102000D03*
X161671000Y-84102000D03*
X164211000Y-84102000D03*
X164211000Y-99342000D03*
X161671000Y-99342000D03*
X159131000Y-99342000D03*
X156591000Y-99342000D03*
X154051000Y-99342000D03*
X151511000Y-99342000D03*
%TD*%
M02*
